<svg xmlns="http://www.w3.org/2000/svg" width="21" height="22" viewBox="0 0 21 22" fill="none"><link xmlns="" type="text/css" rel="stylesheet" id="dark-mode-custom-link"/><link xmlns="" type="text/css" rel="stylesheet" id="dark-mode-general-link"/><style xmlns="" lang="en" type="text/css" id="dark-mode-custom-style"/><style xmlns="" lang="en" type="text/css" id="dark-mode-native-style"/><style xmlns="" lang="en" type="text/css" id="dark-mode-native-sheet"/>
<path d="M7.96442 19.6243C8.64017 20.2208 9.52782 20.5827 10.5 20.5827C11.4722 20.5827 12.3598 20.2208 13.0356 19.6243M16.25 7.16602C16.25 5.64102 15.6442 4.17849 14.5659 3.10015C13.4875 2.02182 12.025 1.41602 10.5 1.41602C8.975 1.41602 7.51247 2.02182 6.43413 3.10015C5.3558 4.17849 4.75 5.64102 4.75 7.16602C4.75 10.1274 4.00295 12.1551 3.16843 13.4962C2.46449 14.6275 2.11253 15.1931 2.12543 15.3509C2.13972 15.5256 2.17674 15.5923 2.31753 15.6967C2.44469 15.791 3.0179 15.791 4.16432 15.791H16.8357C17.9821 15.791 18.5553 15.791 18.6825 15.6967C18.8233 15.5923 18.8603 15.5256 18.8746 15.3509C18.8875 15.1931 18.5355 14.6275 17.8316 13.4962C16.997 12.1551 16.25 10.1274 16.25 7.16602Z" stroke="#000000" stroke-width="2.3" stroke-linecap="round" stroke-linejoin="round"/>
</svg>